# xmcd
#
# Track frame offsets:
#  150
#  15597
#  28368
#  41437
#  53939
#
# Disc length: 932 seconds
#
# Revision: 1
# Processed by: cddbd v1.5.1PL2 Copyright (c) Steve Scherf et al.
# Submitted via: Collectorz.com_Music_Collector 6.9
#
DISCID=3a03a205
DTITLE=Lunch - Lunch
DYEAR=2006
DGENRE=Rock - Pop
TTITLE0=A Dog Named Adolph
TTITLE1=When Trisha Showed Interest, I Took Your Blade
TTITLE2=Pretty Black Girl
TTITLE3=The Depths of Wicked Ways
TTITLE4=Georgia Hightide
EXTD=
EXTT0=
EXTT1=
EXTT2=
EXTT3=
EXTT4=
PLAYORDER=
